<svg width="159" height="94" viewBox="0 0 159 94" fill="none" xmlns="http://www.w3.org/2000/svg">
  <path d="M0.090909 94V0.909088H19.7727V41.9545H21L54.5 0.909088H78.0909L43.5455 42.5909L78.5 94H54.9545L29.4545 55.7273L19.7727 67.5455V94H0.090909Z" fill="#007C59"/>
  <path d="M88.3409 94V0.909088H125.068C132.129 0.909088 138.144 2.25757 143.114 4.95454C148.083 7.62121 151.871 11.3333 154.477 16.0909C157.114 20.8182 158.432 26.2727 158.432 32.4545C158.432 38.6364 157.098 44.0909 154.432 48.8182C151.765 53.5455 147.902 57.2273 142.841 59.8636C137.811 62.5 131.72 63.8182 124.568 63.8182H101.159V48.0455H121.386C125.174 48.0455 128.295 47.3939 130.75 46.0909C133.235 44.7576 135.083 42.9242 136.295 40.5909C137.538 38.2273 138.159 35.5151 138.159 32.4545C138.159 29.3636 137.538 26.6667 136.295 24.3636C135.083 22.0303 133.235 20.2273 130.75 18.9545C128.265 17.6515 125.114 17 121.295 17H108.023V94H88.3409Z" fill="black"/>
</svg>
